<svg width="100" height="32" viewBox="0 0 100 32" fill="none" xmlns="http://www.w3.org/2000/svg">
<path fill-rule="evenodd" clip-rule="evenodd" d="M22.6173 22.0618C24.9106 19.7193 26.3229 16.5281 26.3229 13.0135C26.3229 5.83126 20.4253 0 13.1615 0C5.8976 0 0 5.83126 0 13.0135C0 16.853 1.6853 20.3062 4.36342 22.689C4.36369 22.6893 4.36395 22.6896 4.36423 22.6896C7.41652 25.7049 9.95255 28.2102 11.9723 30.2055C12.7902 31.0613 13.5742 31.0615 14.3236 30.2055L22.3528 22.3248C22.4056 22.2738 22.4578 22.2223 22.5098 22.1703L22.6203 22.0621L22.6173 22.0618ZM10.0265 7.95513H16.6098C16.7831 7.95513 16.9234 8.08581 16.9234 8.24742V8.83171C16.9234 8.99305 16.7831 9.124 16.6098 9.124H10.0265C9.85398 9.124 9.71316 8.99252 9.71316 8.83171V8.24742C9.71316 8.08661 9.85398 7.95513 10.0265 7.95513ZM8.7726 10.0006H17.5503C18.1773 10.0006 18.4909 10.2929 18.4909 10.8772V14.3838C18.4909 14.9681 17.8786 15.2422 17.5503 15.2422L8.7726 15.2604C8.14566 15.2604 7.83205 14.9681 7.83205 14.3838V10.8772C7.83205 10.2929 8.14566 10.0006 8.7726 10.0006ZM5.95095 10.2929C5.60566 10.2929 5.32401 10.555 5.32401 10.8772V13.2149C5.32401 13.5368 5.60566 13.7992 5.95095 13.7992V10.2929ZM20.372 10.2929V13.7992C20.7184 13.7992 20.9989 13.5368 20.9989 13.2149V10.8772C20.9989 10.555 20.7184 10.2929 20.372 10.2929ZM8.9294 16.7212C9.53522 16.7212 10.0265 17.1791 10.0265 17.744C10.0265 18.3088 9.53522 18.7667 8.9294 18.7667C8.32331 18.7667 7.83205 18.3088 7.83205 17.744C7.83205 17.1791 8.32331 16.7212 8.9294 16.7212ZM17.3935 16.7212C17.9996 16.7212 18.4909 17.1791 18.4909 17.744C18.4909 18.3088 17.9996 18.7667 17.3935 18.7667C16.7877 18.7667 16.2965 18.3088 16.2965 17.744C16.2965 17.1791 16.7877 16.7212 17.3935 16.7212ZM9.08593 6.78626C7.02853 6.78626 6.26456 7.41963 6.26456 9.124V18.7667C6.26456 19.164 6.3894 19.4504 6.57816 19.6619V20.5201C6.57816 21.0028 7.00065 21.3967 7.51845 21.3967H8.7726C9.2904 21.3967 9.71316 21.0028 9.71316 20.5201V20.2278H16.6098V20.5201C16.6098 21.0028 17.0325 21.3967 17.5503 21.3967H18.8045C19.3223 21.3967 19.7448 21.0028 19.7448 20.5201V19.6614C19.9335 19.4505 20.0584 19.1638 20.0584 18.7667V9.41601C20.0584 8.14367 19.8891 6.78626 17.864 6.78626H9.08593Z" fill="white"/>
<path d="M64.5062 23.8177C64.2195 23.8177 64.0082 23.7471 63.8725 23.606C63.7367 23.4648 63.6688 23.2382 63.6688 22.9262V9.08514C63.6688 8.78805 63.7367 8.56892 63.8725 8.42776C64.0082 8.28659 64.2195 8.21601 64.5062 8.21601H68.5576C71.7264 8.21601 73.3107 9.47156 73.3107 11.9826C73.3107 13.6469 72.6317 14.8728 71.2737 15.6602L71.2964 15.7495C72.0659 15.9723 72.6694 16.4032 73.1071 17.0421C73.5445 17.6811 73.7633 18.4761 73.7633 19.4271C73.7633 20.7494 73.3295 21.8118 72.462 22.6142C71.5943 23.4165 70.3155 23.8177 68.6256 23.8177H64.5062ZM67.0186 14.5681H68.5804C69.0632 14.5681 69.4214 14.4158 69.6553 14.1113C69.8892 13.8066 70.0062 13.3273 70.0062 12.6736C70.0062 12.0346 69.8968 11.5777 69.678 11.3029C69.4592 11.028 69.1084 10.8906 68.6256 10.8906H67.0186V14.5681ZM67.0186 21.1208H68.7388C69.297 21.1208 69.7081 20.9647 69.9721 20.6527C70.2362 20.3407 70.3683 19.8282 70.3683 19.115C70.3683 18.4314 70.24 17.9447 69.9835 17.655C69.7271 17.3653 69.3122 17.2205 68.7388 17.2205H67.0186V21.1208ZM82.502 23.9961C80.797 23.9961 79.4616 23.58 78.4958 22.7478C77.5303 21.9157 77.0475 20.7494 77.0475 19.2486V8.88459C77.0475 8.40918 77.485 8.17148 78.3601 8.17148H79.2655C80.1406 8.17148 80.5781 8.40918 80.5781 8.88459V19.0257C80.5781 19.635 80.7517 20.1291 81.0989 20.5079C81.4459 20.8868 81.9136 21.0762 82.502 21.0762C83.0754 21.0762 83.5395 20.883 83.894 20.4967C84.2486 20.1104 84.4259 19.62 84.4259 19.0257V8.88459C84.4259 8.40918 84.8636 8.17148 85.7388 8.17148H86.6214C87.4967 8.17148 87.9344 8.40918 87.9344 8.88459V19.2486C87.9344 20.7494 87.4553 21.9157 86.4971 22.7478C85.5388 23.58 84.2071 23.9961 82.502 23.9961ZM95.0661 23.9961C94.3266 23.9961 93.5947 23.8884 92.8706 23.6729C92.1462 23.4574 91.618 23.164 91.286 22.7926C91.0899 22.525 90.9919 22.2649 90.9919 22.0123C90.9919 21.5963 91.1051 21.1729 91.3315 20.7421C91.5577 20.3111 91.8067 20.0956 92.0784 20.0956C92.199 20.0956 92.3914 20.17 92.6555 20.3186C92.9195 20.467 93.1119 20.571 93.2326 20.6306C93.821 20.9277 94.3416 21.0762 94.7945 21.0762C95.2772 21.0762 95.6997 20.9648 96.0619 20.7421C96.4241 20.5191 96.6051 20.1402 96.6051 19.6052C96.6051 19.0406 96.4316 18.5985 96.0846 18.279C95.7374 17.9597 95.1942 17.6069 94.4548 17.2205C93.3232 16.5816 92.4971 15.9203 91.9766 15.2367C91.4559 14.5533 91.1956 13.6469 91.1956 12.5176C91.1956 11.6112 91.3993 10.82 91.8068 10.1439C92.2141 9.46791 92.7761 8.94788 93.4929 8.58377C94.2097 8.21966 95.0282 8.0376 95.9487 8.0376C96.4618 8.0376 97.005 8.11564 97.5784 8.27174C98.1517 8.42766 98.5968 8.61711 98.9139 8.84005C99.1854 9.03331 99.3212 9.29332 99.3212 9.62009C99.3212 10.0064 99.2344 10.4151 99.0609 10.846C98.8874 11.277 98.6724 11.4925 98.4158 11.4925C98.295 11.4925 98.0762 11.433 97.7594 11.3141C97.171 11.0911 96.6806 10.9796 96.2883 10.9796C95.6546 10.9796 95.2207 11.1134 94.9867 11.381C94.7529 11.6484 94.636 11.9529 94.636 12.2946C94.636 12.8296 94.7794 13.2345 95.0661 13.5094C95.3528 13.7842 95.813 14.0852 96.4467 14.4121C96.5825 14.4715 96.7861 14.5755 97.0577 14.7241C98.0989 15.3185 98.8496 15.9574 99.3098 16.641C99.77 17.3245 100 18.2234 100 19.3377C100 20.17 99.819 20.9389 99.4568 21.6445C99.0948 22.3503 98.5441 22.9187 97.8046 23.3497C97.0653 23.7806 96.1524 23.9961 95.0661 23.9961ZM37.6335 23.9737C36.9093 23.9737 36.2907 23.7471 35.7776 23.2939C35.2647 22.8408 35.0082 22.0867 35.0082 21.0317V14.0556H34.4197C34.2386 14.0556 34.1066 13.9924 34.0235 13.8659C33.9405 13.7397 33.8989 13.5354 33.8989 13.2531V12.9635C33.8989 12.6812 33.9405 12.4768 34.0235 12.3504C34.1066 12.2242 34.2386 12.161 34.4197 12.161H35.0082L35.3023 9.88757C35.3325 9.51618 35.6192 9.33048 36.1624 9.33048H36.5245C37.0678 9.33048 37.3394 9.51618 37.3394 9.88757V12.161H38.6521C38.8331 12.161 38.9614 12.2242 39.0369 12.3504C39.1123 12.4768 39.1501 12.6812 39.1501 12.9635V13.2531C39.1501 13.5354 39.1123 13.7397 39.0369 13.8659C38.9614 13.9924 38.8331 14.0556 38.6521 14.0556H37.3394V20.8535C37.3394 21.314 37.4073 21.6334 37.543 21.8117C37.6788 21.9901 37.875 22.0792 38.1315 22.0792C38.2825 22.0792 38.4258 22.0606 38.5616 22.0235C38.6974 21.9863 38.7955 21.9677 38.856 21.9677C39.0067 21.9677 39.1311 22.1275 39.2292 22.447C39.3274 22.7665 39.3765 23.0154 39.3765 23.1937C39.3765 23.476 39.1878 23.6765 38.8105 23.7953C38.4333 23.9143 38.041 23.9737 37.6335 23.9737ZM45.5576 23.9737C44.5466 23.9737 43.7505 23.6691 43.1696 23.0598C42.5887 22.4507 42.2983 21.5963 42.2983 20.4967C42.2983 19.0554 42.8264 18.0153 43.8826 17.3765C44.9388 16.7376 46.3648 16.4106 48.1605 16.3957V15.5487C48.1605 15.0584 48.0171 14.6609 47.7304 14.3564C47.4437 14.0518 46.9835 13.8995 46.3498 13.8995C45.882 13.8995 45.4708 13.9553 45.1162 14.0668C44.7616 14.1781 44.4409 14.3043 44.1542 14.4454C43.8675 14.5866 43.694 14.6572 43.6337 14.6572C43.4676 14.6572 43.2752 14.4863 43.0564 14.1446C42.8377 13.8029 42.7284 13.5429 42.7284 13.3646C42.7284 13.1566 42.9057 12.9486 43.2603 12.7405C43.6149 12.5325 44.0789 12.3579 44.6523 12.2168C45.2255 12.0756 45.8215 12.005 46.4402 12.005C47.753 12.005 48.7526 12.3171 49.4393 12.9411C50.1259 13.5651 50.4692 14.427 50.4692 15.5266V20.3407C50.4692 21.3363 50.5144 22.057 50.6049 22.5027C50.6953 22.9484 50.7405 23.2011 50.7405 23.2606C50.7405 23.4686 50.5557 23.6172 50.1862 23.7062C49.8164 23.7955 49.4731 23.8401 49.1563 23.8401C48.93 23.8401 48.7641 23.7398 48.6585 23.539C48.5527 23.3385 48.447 23.0154 48.3414 22.5696C47.602 23.5057 46.6741 23.9737 45.5576 23.9737ZM46.1234 22.0123C46.9683 22.0123 47.6473 21.6409 48.1605 20.8981V18.1121C47.059 18.1268 46.1875 18.2939 45.5463 18.6134C44.905 18.9329 44.5843 19.531 44.5843 20.4076C44.5843 21.4774 45.0973 22.0123 46.1234 22.0123ZM56.1748 23.8622C55.4808 23.8622 55.1337 23.6765 55.1337 23.3051V15.6602C55.1337 14.6795 55.0884 13.9663 54.9978 13.5206C54.9073 13.0749 54.8621 12.8222 54.8621 12.7627C54.8621 12.5547 55.0507 12.4061 55.4278 12.317C55.8052 12.2278 56.1523 12.1832 56.4691 12.1832C56.6954 12.1832 56.8576 12.2909 56.9558 12.5064C57.0538 12.7219 57.1292 12.9522 57.1819 13.1974C57.2348 13.4425 57.2689 13.6097 57.284 13.699C57.9479 12.5697 58.6948 12.005 59.5248 12.005C60.2943 12.005 60.679 12.3319 60.679 12.9856C60.679 13.2532 60.63 13.5578 60.532 13.8995C60.4337 14.2413 60.3167 14.4121 60.181 14.4121C60.1055 14.4121 59.9659 14.375 59.7623 14.3006C59.5586 14.2263 59.3361 14.1892 59.0947 14.1892C58.7325 14.1892 58.393 14.3378 58.0762 14.635C57.7593 14.9321 57.5481 15.2145 57.4425 15.482V23.3051C57.4425 23.6765 57.1029 23.8622 56.4239 23.8622H56.1748Z" fill="white"/>
</svg>
